# xmcd
#
# Track frame offsets:
#	150
#	11885
#	25880
#	36250
#	53022
#	67450
#	80337
#	94595
#	107920
#	120150
#	132542
#	145795
#	157977
#	172097
#	183667
#	198570
#	232952
#	251905
#
# Disc length: 3583 seconds
#
# Revision: 3
# Processed by: cddbd v1.5.2PL0 Copyright (c) Steve Scherf et al.
# Submitted via: EZCDAudioConverter 2.1.7.1
#
DISCID=010dfd12
DTITLE=V/A - Acid Drops, Spacedust and Flying Saucers 3/4
DYEAR=1900
DGENRE=
TTITLE0=Purple Gang - Granny Takes A Trip
TTITLE1=The Smoke - My Friend Jack
TTITLE2=Idle Race - Impostors Of Life's Magazine
TTITLE3=Pretty Things - Talkin' About The Good Times
TTITLE4=Donovan - Hurdy Gurdy Man
TTITLE5=Spencer Davis Group - Time Seller
TTITLE6=Denny Laine - Say You Don't Mind
TTITLE7=The Move - I Can Hear The Grass Grow
TTITLE8=The Kinks - See My Friends
TTITLE9=Peter Cook and Dudley Moore - The L.S. Bumble Bee
TTITLE10=The Yardbirds - Happenings Ten Years Time Ago
TTITLE11=Small Faces - Green Circles
TTITLE12=The Hollies - King Midas In Reverse
TTITLE13=David McWilliams - The Days Of Pearly Spencer
TTITLE14=The Herd - From The Underworld
TTITLE15=Eric Burdon and The Animals - Sky Pilot
TTITLE16=Traffic - Paper Sun
TTITLE17=Simon Dupree and The Big Sound - Kites
EXTD=
EXTT0=
EXTT1=
EXTT2=
EXTT3=
EXTT4=
EXTT5=
EXTT6=
EXTT7=
EXTT8=
EXTT9=
EXTT10=
EXTT11=
EXTT12=
EXTT13=
EXTT14=
EXTT15=
EXTT16=
EXTT17=
PLAYORDER=
